HIERARCHY
ROOT Hips
{
	OFFSET 0.053599 88.859886 3.107447
	CHANNELS 6 Xposition Yposition Zposition Zrotation Yrotation Xrotation 
	JOINT Spine
	{
		OFFSET -0.000000 8.814246 -2.080107
		CHANNELS 3 Zrotation Yrotation Xrotation
		JOINT Spine1
		{
			OFFSET 0.000000 8.844141 0.000000
			CHANNELS 3 Zrotation Yrotation Xrotation
			JOINT Spine2
			{
				OFFSET -0.000000 11.682268 0.000000
				CHANNELS 3 Zrotation Yrotation Xrotation
				JOINT Spine3
				{
					OFFSET 0.000000 11.746700 0.000000
					CHANNELS 3 Zrotation Yrotation Xrotation
					JOINT Neck
					{
						OFFSET -0.000000 17.658264 -0.000000
						CHANNELS 3 Zrotation Yrotation Xrotation
						JOINT Neck1
						{
							OFFSET -0.000000 5.101515 -0.000000
							CHANNELS 3 Zrotation Yrotation Xrotation
							JOINT Head
							{
								OFFSET 0.000000 5.101515 0.000000
								CHANNELS 3 Zrotation Yrotation Xrotation
								JOINT HeadEnd
								{
									OFFSET 0.000000 11.655085 0.000000
									CHANNELS 3 Zrotation Yrotation Xrotation
									End Site
									{
										OFFSET 0.000000 0.000000 0.000000
									}
								}
							}
						}
					}
					JOINT RightShoulder
					{
						OFFSET -2.625389 11.175210 0.000000
						CHANNELS 3 Zrotation Yrotation Xrotation
						JOINT RightArm
						{
							OFFSET -0.000000 10.434715 -0.000000
							CHANNELS 3 Zrotation Yrotation Xrotation
							JOINT RightForeArm
							{
								OFFSET -0.000000 29.628420 0.000000
								CHANNELS 3 Zrotation Yrotation Xrotation
								JOINT RightHand
								{
									OFFSET -0.000000 22.857611 0.000000
									CHANNELS 3 Zrotation Yrotation Xrotation
									JOINT RightHandThumb1
									{
										OFFSET -2.867323 3.959563 2.944291
										CHANNELS 3 Zrotation Yrotation Xrotation
										JOINT RightHandThumb2
										{
											OFFSET 0.000000 3.350399 0.000000
											CHANNELS 3 Zrotation Yrotation Xrotation
											JOINT RightHandThumb3
											{
												OFFSET 0.000000 3.756509 -0.000000
												CHANNELS 3 Zrotation Yrotation Xrotation
												JOINT RightHandThumb4
												{
													OFFSET 0.000000 3.147345 0.000000
													CHANNELS 3 Zrotation Yrotation Xrotation
													End Site
													{
														OFFSET 0.000000 0.000000 0.000000
													}
												}
											}
										}
									}
									JOINT RightHandIndex1
									{
										OFFSET -0.086752 10.030893 2.345280
										CHANNELS 3 Zrotation Yrotation Xrotation
										JOINT RightHandIndex2
										{
											OFFSET -0.000000 4.061090 0.000000
											CHANNELS 3 Zrotation Yrotation Xrotation
											JOINT RightHandIndex3
											{
												OFFSET -0.000000 3.248873 0.000000
												CHANNELS 3 Zrotation Yrotation Xrotation
												JOINT RightHandIndex4
												{
													OFFSET 0.000000 2.639709 -0.000000
													CHANNELS 3 Zrotation Yrotation Xrotation
													End Site
													{
														OFFSET 0.000000 0.000000 0.000000
													}
												}
											}
										}
									}
									JOINT RightHandMiddle1
									{
										OFFSET 0.104102 9.502952 0.006768
										CHANNELS 3 Zrotation Yrotation Xrotation
										JOINT RightHandMiddle2
										{
											OFFSET 0.000000 4.568727 0.000000
											CHANNELS 3 Zrotation Yrotation Xrotation
											JOINT RightHandMiddle3
											{
												OFFSET 0.000000 3.654981 -0.000000
												CHANNELS 3 Zrotation Yrotation Xrotation
												JOINT RightHandMiddle4
												{
													OFFSET -0.000000 2.741236 -0.000000
													CHANNELS 3 Zrotation Yrotation Xrotation
													End Site
													{
														OFFSET 0.000000 0.000000 0.000000
													}
												}
											}
										}
									}
									JOINT RightHandRing1
									{
										OFFSET 0.086752 8.921708 -2.267442
										CHANNELS 3 Zrotation Yrotation Xrotation
										JOINT RightHandRing2
										{
											OFFSET -0.000000 4.061090 0.000000
											CHANNELS 3 Zrotation Yrotation Xrotation
											JOINT RightHandRing3
											{
												OFFSET 0.000000 3.654981 -0.000000
												CHANNELS 3 Zrotation Yrotation Xrotation
												JOINT RightHandRing4
												{
													OFFSET 0.000000 2.741236 -0.000000
													CHANNELS 3 Zrotation Yrotation Xrotation
													End Site
													{
														OFFSET 0.000000 0.000000 0.000000
													}
												}
											}
										}
									}
									JOINT RightHandPinky1
									{
										OFFSET -0.173504 7.976997 -4.467199
										CHANNELS 3 Zrotation Yrotation Xrotation
										JOINT RightHandPinky2
										{
											OFFSET 0.000000 3.350399 -0.000000
											CHANNELS 3 Zrotation Yrotation Xrotation
											JOINT RightHandPinky3
											{
												OFFSET -0.000000 2.842763 0.000000
												CHANNELS 3 Zrotation Yrotation Xrotation
												JOINT RightHandPinky4
												{
													OFFSET -0.000000 2.639709 0.000000
													CHANNELS 3 Zrotation Yrotation Xrotation
													End Site
													{
														OFFSET 0.000000 0.000000 0.000000
													}
												}
											}
										}
									}
									JOINT RightForeArmEnd
									{
										OFFSET 0.000000 0.000000 0.000000
										CHANNELS 3 Zrotation Yrotation Xrotation
										End Site
										{
											OFFSET 0.000000 0.000000 0.000000
										}
									}
								}
								JOINT RightArmEnd
								{
									OFFSET 0.000000 0.000000 0.000000
									CHANNELS 3 Zrotation Yrotation Xrotation
									End Site
									{
										OFFSET 0.000000 0.000000 0.000000
									}
								}
							}
						}
					}
					JOINT LeftShoulder
					{
						OFFSET 2.625389 11.175210 0.000000
						CHANNELS 3 Zrotation Yrotation Xrotation
						JOINT LeftArm
						{
							OFFSET 0.000000 10.813635 -0.000000
							CHANNELS 3 Zrotation Yrotation Xrotation
							JOINT LeftForeArm
							{
								OFFSET 0.000000 28.724781 0.000000
								CHANNELS 3 Zrotation Yrotation Xrotation
								JOINT LeftHand
								{
									OFFSET 0.644384 25.716167 -0.328871
									CHANNELS 3 Zrotation Yrotation Xrotation
									JOINT LeftHandThumb1
									{
										OFFSET 2.867323 3.959563 2.944291
										CHANNELS 3 Zrotation Yrotation Xrotation
										JOINT LeftHandThumb2
										{
											OFFSET 0.000000 3.350399 0.000000
											CHANNELS 3 Zrotation Yrotation Xrotation
											JOINT LeftHandThumb3
											{
												OFFSET -0.000000 3.756509 0.000000
												CHANNELS 3 Zrotation Yrotation Xrotation
												JOINT LeftHandThumb4
												{
													OFFSET -0.000000 3.100000 0.000000
													CHANNELS 3 Zrotation Yrotation Xrotation
													End Site
													{
														OFFSET 0.000000 0.000000 0.000000
													}
												}
											}
										}
									}
									JOINT LeftHandIndex1
									{
										OFFSET 0.086752 10.030893 2.345280
										CHANNELS 3 Zrotation Yrotation Xrotation
										JOINT LeftHandIndex2
										{
											OFFSET -0.000000 4.061090 -0.000000
											CHANNELS 3 Zrotation Yrotation Xrotation
											JOINT LeftHandIndex3
											{
												OFFSET 0.000000 3.248873 -0.000000
												CHANNELS 3 Zrotation Yrotation Xrotation
												JOINT LeftHandIndex4
												{
													OFFSET 0.000000 2.639709 -0.000000
													CHANNELS 3 Zrotation Yrotation Xrotation
													End Site
													{
														OFFSET 0.000000 0.000000 0.000000
													}
												}
											}
										}
									}
									JOINT LeftHandMiddle1
									{
										OFFSET -0.104102 9.502952 0.006768
										CHANNELS 3 Zrotation Yrotation Xrotation
										JOINT LeftHandMiddle2
										{
											OFFSET -0.000000 4.568727 -0.000000
											CHANNELS 3 Zrotation Yrotation Xrotation
											JOINT LeftHandMiddle3
											{
												OFFSET 0.000000 3.654981 0.000000
												CHANNELS 3 Zrotation Yrotation Xrotation
												JOINT LeftHandMiddle4
												{
													OFFSET 0.000000 2.741236 -0.000000
													CHANNELS 3 Zrotation Yrotation Xrotation
													End Site
													{
														OFFSET 0.000000 0.000000 0.000000
													}
												}
											}
										}
									}
									JOINT LeftHandRing1
									{
										OFFSET -0.086752 8.921708 -2.267442
										CHANNELS 3 Zrotation Yrotation Xrotation
										JOINT LeftHandRing2
										{
											OFFSET 0.000000 4.061090 0.000000
											CHANNELS 3 Zrotation Yrotation Xrotation
											JOINT LeftHandRing3
											{
												OFFSET 0.000000 3.654981 0.000000
												CHANNELS 3 Zrotation Yrotation Xrotation
												JOINT LeftHandRing4
												{
													OFFSET 0.000000 2.741236 0.000000
													CHANNELS 3 Zrotation Yrotation Xrotation
													End Site
													{
														OFFSET 0.000000 0.000000 0.000000
													}
												}
											}
										}
									}
									JOINT LeftHandPinky1
									{
										OFFSET 0.173504 7.976997 -4.467199
										CHANNELS 3 Zrotation Yrotation Xrotation
										JOINT LeftHandPinky2
										{
											OFFSET -0.000000 3.350399 -0.000000
											CHANNELS 3 Zrotation Yrotation Xrotation
											JOINT LeftHandPinky3
											{
												OFFSET 0.000000 2.842763 0.000000
												CHANNELS 3 Zrotation Yrotation Xrotation
												JOINT LeftHandPinky4
												{
													OFFSET -0.000000 2.639709 -0.000000
													CHANNELS 3 Zrotation Yrotation Xrotation
													End Site
													{
														OFFSET 0.000000 0.000000 0.000000
													}
												}
											}
										}
									}
									JOINT LeftForeArmEnd
									{
										OFFSET 0.000000 0.000000 0.000000
										CHANNELS 3 Zrotation Yrotation Xrotation
										End Site
										{
											OFFSET 0.000000 0.000000 0.000000
										}
									}
								}
								JOINT LeftArmEnd
								{
									OFFSET 0.000000 0.000000 0.000000
									CHANNELS 3 Zrotation Yrotation Xrotation
									End Site
									{
										OFFSET 0.000000 0.000000 0.000000
									}
								}
							}
						}
					}
				}
			}
		}
	}
	JOINT RightUpLeg
	{
		OFFSET -11.289943 0.000000 0.000000
		CHANNELS 3 Zrotation Yrotation Xrotation
		JOINT RightLeg
		{
			OFFSET 0.000000 -38.200325 0.000000
			CHANNELS 3 Zrotation Yrotation Xrotation
			JOINT RightFoot
			{
				OFFSET -0.000000 -39.900856 -0.000000
				CHANNELS 3 Zrotation Yrotation Xrotation
				JOINT RightToeBase
				{
					OFFSET 0.000000 0.000000 15.261641
					CHANNELS 3 Zrotation Yrotation Xrotation
					JOINT RightToeBaseEnd
					{
						OFFSET 0.000000 0.000000 7.370709
						CHANNELS 3 Zrotation Yrotation Xrotation
						End Site
						{
							OFFSET 0.000000 0.000000 0.000000
						}
					}
				}
				JOINT RightLegEnd
				{
					OFFSET 0.000000 0.000000 0.000000
					CHANNELS 3 Zrotation Yrotation Xrotation
					End Site
					{
						OFFSET 0.000000 0.000000 0.000000
					}
				}
			}
			JOINT RightUpLegEnd
			{
				OFFSET 0.000000 0.000000 0.000000
				CHANNELS 3 Zrotation Yrotation Xrotation
				End Site
				{
					OFFSET 0.000000 0.000000 0.000000
				}
			}
		}
	}
	JOINT LeftUpLeg
	{
		OFFSET 11.315661 -0.000000 0.000000
		CHANNELS 3 Zrotation Yrotation Xrotation
		JOINT LeftLeg
		{
			OFFSET -0.000000 -38.200325 -0.000000
			CHANNELS 3 Zrotation Yrotation Xrotation
			JOINT LeftFoot
			{
				OFFSET 0.000000 -39.900856 -0.000000
				CHANNELS 3 Zrotation Yrotation Xrotation
				JOINT LeftToeBase
				{
					OFFSET -0.000000 -0.000000 15.261641
					CHANNELS 3 Zrotation Yrotation Xrotation
					JOINT LeftToeBaseEnd
					{
						OFFSET 0.000000 -0.000000 7.539996
						CHANNELS 3 Zrotation Yrotation Xrotation
						End Site
						{
							OFFSET 0.000000 0.000000 0.000000
						}
					}
				}
				JOINT LeftLegEnd
				{
					OFFSET 0.000000 0.000000 0.000000
					CHANNELS 3 Zrotation Yrotation Xrotation
					End Site
					{
						OFFSET 0.000000 0.000000 0.000000
					}
				}
			}
			JOINT LeftUpLegEnd
			{
				OFFSET 0.000000 0.000000 0.000000
				CHANNELS 3 Zrotation Yrotation Xrotation
				End Site
				{
					OFFSET 0.000000 0.000000 0.000000
				}
			}
		}
	}
}
MOTION
Frames: 4
Frame Time: 0.016667
0.058039 88.667191 3.538377 -0.089670 -0.763711 -11.596081 1.044565 -0.077597 7.479630 -0.888441 0.143190 2.708313 -0.192016 -1.130140 5.907549 -1.234894 -0.128492 4.475163 0.011337 0.379826 4.598350 0.184739 0.658910 -3.429893 -0.413866 -0.970412 -19.087816 0.000000 0.000000 0.000000 92.818954 -0.514580 10.849236 64.976990 -27.438332 8.033126 0.088924 15.172729 24.648273 5.770192 10.728015 -7.535397 20.058170 30.012075 61.852161 -8.769320 -12.511454 -21.217455 -6.486554 -8.336972 -14.737185 0.000000 0.000000 0.000000 13.276820 -11.042581 -0.245202 10.071526 0.359985 1.172683 9.777634 -0.076363 1.141204 0.000000 0.000000 0.000000 12.713870 -5.585947 -0.977277 8.821314 0.456732 0.442849 9.377537 -0.043363 0.392419 0.000000 0.000000 0.000000 13.558645 2.065165 -0.627470 9.577548 -0.910645 -0.732998 9.377007 0.042253 -0.499020 0.000000 0.000000 0.000000 12.326077 10.538812 -1.671872 9.140348 -1.687535 -2.133759 8.851828 0.218455 -1.788426 0.000000 0.000000 0.000000 0.000000 0.000000 0.000000 0.000000 0.000000 0.000000 -90.422150 0.368193 6.423650 -71.478401 16.969818 -5.791759 -1.118475 -11.037474 46.483685 -1.155131 -16.458746 -17.420475 -20.013391 -30.047592 61.813381 8.729130 12.408911 -21.055590 6.457655 8.367636 -14.722323 0.000000 0.000000 0.000000 -16.128302 -5.913270 1.935730 -10.413215 0.390767 -0.940820 -10.374722 -0.071080 -0.895110 0.000000 0.000000 0.000000 -15.412548 -0.847933 0.191977 -10.148532 0.447661 -0.430136 -10.260137 -0.032351 -0.349292 0.000000 0.000000 0.000000 -18.443190 7.321198 -0.925437 -11.685244 -0.920430 0.725303 -11.631434 0.048139 0.547233 0.000000 0.000000 0.000000 -21.027063 15.705439 -3.139794 -12.708841 -1.663649 2.273448 -12.410665 0.302544 2.059856 0.000000 0.000000 0.000000 0.000000 0.000000 0.000000 0.000000 0.000000 0.000000 -0.890192 -10.306286 16.077030 -0.055067 -0.701902 4.642517 -3.215407 -7.565501 17.164122 -0.914173 0.835704 -18.185602 0.000000 0.000000 0.000000 0.000000 0.000000 0.000000 0.000000 0.000000 0.000000 -1.581087 -5.863228 10.892751 0.045658 0.329613 10.165049 3.810021 -1.611750 15.966070 0.174605 -0.410364 -20.521448 0.000000 0.000000 0.000000 0.000000 0.000000 0.000000 0.000000 0.000000 0.000000 
0.066902 88.662613 3.564881 -0.075446 -0.770317 -11.603687 1.055062 -0.085259 7.472105 -0.907827 0.135719 2.651176 -0.212293 -1.125275 5.939543 -1.217796 -0.138643 4.464150 -0.008856 0.346592 4.473531 0.192641 0.631638 -3.456904 -0.390590 -0.966692 -19.078552 0.000000 0.000000 0.000000 92.757256 -0.527316 10.904860 64.911163 -27.851463 8.022818 0.045895 14.920714 24.906515 6.327264 10.358835 -7.467838 20.127487 29.989788 61.774803 -8.841347 -12.649027 -21.433893 -6.543447 -8.428273 -14.881680 0.000000 0.000000 0.000000 14.046121 -11.157030 -0.340955 10.469790 0.342826 1.220071 10.175066 -0.092700 1.184739 0.000000 0.000000 0.000000 13.386163 -5.694914 -1.028402 9.176699 0.449540 0.464210 9.733804 -0.048680 0.408394 0.000000 0.000000 0.000000 14.054736 1.971976 -0.628630 9.868364 -0.900933 -0.755978 9.692427 0.049416 -0.516565 0.000000 0.000000 0.000000 12.635262 10.480604 -1.589666 9.343953 -1.659474 -2.196205 9.081015 0.240291 -1.849384 0.000000 0.000000 0.000000 0.000000 0.000000 0.000000 0.000000 0.000000 0.000000 -90.284775 0.343130 6.467283 -71.516457 17.145647 -5.697306 -1.108688 -10.929845 46.475677 -1.608912 -16.334064 -17.295719 -20.053144 -30.034286 61.764652 8.768738 12.486098 -21.184715 6.492991 8.423558 -14.807498 0.000000 0.000000 0.000000 -16.567940 -5.821183 1.867538 -10.539769 0.382843 -0.952713 -10.477560 -0.078185 -0.908312 0.000000 0.000000 0.000000 -15.703663 -0.791776 0.128163 -10.251330 0.445553 -0.433231 -10.359361 -0.033948 -0.351417 0.000000 0.000000 0.000000 -18.597683 7.336914 -0.958383 -11.737367 -0.914572 0.729582 -11.681825 0.051969 0.547657 0.000000 0.000000 0.000000 -21.078436 15.687868 -3.142417 -12.708604 -1.648649 2.283831 -12.395625 0.316934 2.071990 0.000000 0.000000 0.000000 0.000000 0.000000 0.000000 0.000000 0.000000 0.000000 -0.941093 -10.336621 16.091068 -0.055683 -0.702169 4.701895 -3.178305 -7.615063 17.112865 -0.918101 0.839404 -18.170483 0.000000 0.000000 0.000000 0.000000 0.000000 0.000000 0.000000 0.000000 0.000000 -1.617146 -5.898945 10.896276 0.045376 0.330083 10.175785 3.800398 -1.686332 15.977852 0.176335 -0.415761 -20.526625 0.000000 0.000000 0.000000 0.000000 0.000000 0.000000 0.000000 0.000000 0.000000 
0.076515 88.659241 3.588426 -0.061676 -0.773362 -11.612570 1.067500 -0.090993 7.469921 -0.933893 0.134066 2.596083 -0.220405 -1.115290 5.974545 -1.208114 -0.142328 4.461281 0.000989 0.313617 4.385805 0.202938 0.605260 -3.468528 -0.361840 -0.965919 -19.083117 0.000000 0.000000 0.000000 92.715279 -0.543954 10.943218 64.877464 -28.266382 7.969814 0.010654 14.745426 25.239595 6.786318 9.937226 -7.370414 20.180197 29.972925 61.712578 -8.896558 -12.756200 -21.600838 -6.587037 -8.498690 -14.992659 0.000000 0.000000 0.000000 14.688502 -11.250003 -0.375467 10.798697 0.325221 1.270419 10.508284 -0.109218 1.231318 0.000000 0.000000 0.000000 13.961528 -5.786357 -1.039523 9.479712 0.442163 0.486128 10.032052 -0.054144 0.425132 0.000000 0.000000 0.000000 14.495022 1.888984 -0.607478 10.129129 -0.891114 -0.778748 9.974090 0.056689 -0.533831 0.000000 0.000000 0.000000 12.937941 10.427406 -1.502910 9.545688 -1.632361 -2.254527 9.309262 0.261526 -1.905942 0.000000 0.000000 0.000000 0.000000 0.000000 0.000000 0.000000 0.000000 0.000000 -90.168953 0.320831 6.482089 -71.492302 17.387526 -5.587878 -1.078107 -10.879459 46.666840 -2.068254 -16.206106 -17.120066 -20.103571 -30.018612 61.704826 8.819055 12.587400 -21.348129 6.536253 8.492933 -14.916549 0.000000 0.000000 0.000000 -17.114725 -5.709375 1.845855 -10.736342 0.373388 -0.969877 -10.648445 -0.087388 -0.925064 0.000000 0.000000 0.000000 -16.113304 -0.716173 0.118339 -10.423326 0.442694 -0.438111 -10.531509 -0.036341 -0.355282 0.000000 0.000000 0.000000 -18.864227 7.373063 -0.931537 -11.858002 -0.908244 0.734350 -11.800610 0.056104 0.548927 0.000000 0.000000 0.000000 -21.232498 15.686803 -3.076597 -12.765648 -1.633571 2.295949 -12.439526 0.331665 2.084122 0.000000 0.000000 0.000000 0.000000 0.000000 0.000000 0.000000 0.000000 0.000000 -0.994686 -10.354391 16.109678 -0.056005 -0.702286 4.751809 -3.138603 -7.668755 17.072691 -0.921566 0.842896 -18.165245 0.000000 0.000000 0.000000 0.000000 0.000000 0.000000 0.000000 0.000000 0.000000 -1.654392 -5.947906 10.904428 0.045244 0.331290 10.173712 3.779692 -1.756620 15.993329 0.177536 -0.422871 -20.533560 0.000000 0.000000 0.000000 0.000000 0.000000 0.000000 0.000000 0.000000 0.000000 
0.084648 88.657524 3.609842 -0.050476 -0.771286 -11.623645 1.077780 -0.093901 7.473035 -0.955584 0.134399 2.549818 -0.220099 -1.099071 6.003459 -1.203123 -0.140204 4.464649 0.021265 0.290723 4.347356 0.210395 0.583284 -3.463601 -0.333527 -0.964358 -19.105381 0.000000 0.000000 0.000000 92.685165 -0.554841 10.951956 64.886414 -28.698896 7.881147 -0.015073 14.635999 25.616665 7.136812 9.505597 -7.276894 20.218754 29.962238 61.666901 -8.932346 -12.839746 -21.722609 -6.617646 -8.551920 -15.074047 0.000000 0.000000 0.000000 15.208177 -11.327622 -0.369859 11.082382 0.308756 1.323004 10.797337 -0.124494 1.280089 0.000000 0.000000 0.000000 14.439054 -5.863017 -1.024874 9.751783 0.435322 0.507989 10.292256 -0.059391 0.442532 0.000000 0.000000 0.000000 14.870865 1.820434 -0.576321 10.370375 -0.882087 -0.801495 10.228976 0.063495 -0.551718 0.000000 0.000000 0.000000 13.221078 10.385415 -1.417943 9.746250 -1.608840 -2.311075 9.532737 0.280401 -1.959347 0.000000 0.000000 0.000000 0.000000 0.000000 0.000000 0.000000 0.000000 0.000000 -90.072617 0.306652 6.472733 -71.421616 17.690948 -5.465401 -1.026218 -10.854874 46.982544 -2.554556 -16.058720 -16.928015 -20.158283 -30.001953 61.641922 8.874602 12.698912 -21.524801 6.582569 8.566401 -15.035571 0.000000 0.000000 0.000000 -17.729738 -5.584246 1.824409 -10.992438 0.363542 -0.993769 -10.881269 -0.097566 -0.947677 0.000000 0.000000 0.000000 -16.612293 -0.625109 0.128347 -10.659315 0.439558 -0.446343 -10.771983 -0.039154 -0.362014 0.000000 0.000000 0.000000 -19.216143 7.426867 -0.877052 -12.051812 -0.901809 0.742045 -11.991299 0.060273 0.553191 0.000000 0.000000 0.000000 -21.457300 15.701555 -2.964635 -12.885247 -1.619029 2.315300 -12.551547 0.345528 2.099850 0.000000 0.000000 0.000000 0.000000 0.000000 0.000000 0.000000 0.000000 0.000000 -1.046951 -10.356177 16.137112 -0.056269 -0.702927 4.782409 -3.101440 -7.719912 17.049000 -0.925099 0.845936 -18.169388 0.000000 0.000000 0.000000 0.000000 0.000000 0.000000 0.000000 0.000000 0.000000 -1.684605 -5.997064 10.915574 0.045545 0.333749 10.166931 3.755625 -1.820933 16.005976 0.178541 -0.430499 -20.540407 0.000000 0.000000 0.000000 0.000000 0.000000 0.000000 0.000000 0.000000 0.000000 
